<svg width="102" height="138" viewBox="0 0 102 138" fill="none" xmlns="http://www.w3.org/2000/svg">
<g filter="url(#filter0_d_31_1250)">
<rect x="4" y="4" width="94" height="130" fill="white"/>
<rect x="17" y="103" width="70" height="22" rx="11" fill="#6327FE"/>
<path d="M25.6078 95.117C27.3088 95.117 28.4968 93.794 28.4968 91.661C28.4968 89.528 27.3088 88.25 25.6078 88.25C23.9068 88.25 22.7278 89.528 22.7278 91.661C22.7278 93.794 23.9068 95.117 25.6078 95.117ZM25.6078 94.208C24.5098 94.208 23.7988 93.209 23.7988 91.661C23.7988 90.104 24.5098 89.159 25.6078 89.159C26.7058 89.159 27.4258 90.104 27.4258 91.661C27.4258 93.209 26.7058 94.208 25.6078 94.208ZM29.783 95H30.818V91.913C31.124 91.13 31.61 90.851 32.015 90.851C32.213 90.851 32.339 90.878 32.51 90.932L32.699 90.032C32.546 89.96 32.384 89.924 32.141 89.924C31.61 89.924 31.088 90.302 30.737 90.941H30.71L30.629 90.05H29.783V95ZM33.4656 95H34.5006V90.05H33.4656V95ZM33.9786 89.123C34.3566 89.123 34.6266 88.88 34.6266 88.502C34.6266 88.133 34.3566 87.89 33.9786 87.89C33.6006 87.89 33.3396 88.133 33.3396 88.502C33.3396 88.88 33.6006 89.123 33.9786 89.123ZM37.7416 97.223C39.3256 97.223 40.3336 96.449 40.3336 95.495C40.3336 94.649 39.7216 94.289 38.5516 94.289H37.6426C37.0126 94.289 36.8146 94.1 36.8146 93.803C36.8146 93.56 36.9226 93.425 37.0846 93.281C37.3006 93.38 37.5526 93.434 37.7776 93.434C38.8126 93.434 39.6316 92.813 39.6316 91.733C39.6316 91.355 39.4966 91.022 39.3076 90.824H40.2526V90.05H38.4976C38.3086 89.978 38.0566 89.924 37.7776 89.924C36.7516 89.924 35.8606 90.581 35.8606 91.697C35.8606 92.291 36.1756 92.759 36.5176 93.02V93.056C36.2386 93.254 35.9596 93.587 35.9596 93.974C35.9596 94.379 36.1576 94.64 36.4096 94.793V94.838C35.9506 95.117 35.6896 95.504 35.6896 95.918C35.6896 96.782 36.5536 97.223 37.7416 97.223ZM37.7776 92.768C37.2646 92.768 36.8416 92.363 36.8416 91.697C36.8416 91.031 37.2556 90.653 37.7776 90.653C38.2996 90.653 38.7136 91.04 38.7136 91.697C38.7136 92.363 38.2906 92.768 37.7776 92.768ZM37.8946 96.539C37.0756 96.539 36.5716 96.251 36.5716 95.765C36.5716 95.513 36.6976 95.261 36.9946 95.045C37.2016 95.09 37.4266 95.117 37.6606 95.117H38.4076C39.0106 95.117 39.3346 95.243 39.3346 95.657C39.3346 96.116 38.7586 96.539 37.8946 96.539ZM41.2527 95H42.2877V90.05H41.2527V95ZM41.7657 89.123C42.1437 89.123 42.4137 88.88 42.4137 88.502C42.4137 88.133 42.1437 87.89 41.7657 87.89C41.3877 87.89 41.1267 88.133 41.1267 88.502C41.1267 88.88 41.3877 89.123 41.7657 89.123ZM43.8367 95H44.8717V91.49C45.3037 91.049 45.6187 90.815 46.0777 90.815C46.6627 90.815 46.9147 91.157 46.9147 92.012V95H47.9497V91.886C47.9497 90.626 47.4817 89.924 46.4287 89.924C45.7537 89.924 45.2497 90.293 44.7907 90.734H44.7637L44.6827 90.05H43.8367V95ZM50.6229 95.117C51.2169 95.117 51.7479 94.82 52.1979 94.433H52.2339L52.3149 95H53.1609V92.021C53.1609 90.707 52.5939 89.924 51.3609 89.924C50.5689 89.924 49.8759 90.248 49.3629 90.572L49.7499 91.274C50.1729 91.004 50.6589 90.77 51.1809 90.77C51.9099 90.77 52.1169 91.274 52.1259 91.85C50.0649 92.075 49.1649 92.624 49.1649 93.686C49.1649 94.559 49.7679 95.117 50.6229 95.117ZM50.9379 94.298C50.4969 94.298 50.1639 94.1 50.1639 93.614C50.1639 93.056 50.6589 92.678 52.1259 92.507V93.722C51.7209 94.091 51.3699 94.298 50.9379 94.298ZM55.6557 95.117C55.9167 95.117 56.0877 95.081 56.2137 95.036L56.0787 94.253C55.9887 94.271 55.9527 94.271 55.9077 94.271C55.7817 94.271 55.6647 94.172 55.6647 93.893V87.827H54.6297V93.839C54.6297 94.64 54.9087 95.117 55.6557 95.117ZM56.6443 96.314H61.4683V95.675H56.6443V96.314ZM65.0371 95.117C65.8921 95.117 66.5671 94.775 67.0981 94.163L66.5401 93.506C66.1441 93.938 65.6851 94.208 65.0731 94.208C63.9031 94.208 63.1651 93.245 63.1651 91.67C63.1651 90.113 63.9571 89.159 65.1001 89.159C65.6401 89.159 66.0541 89.402 66.3961 89.753L66.9631 89.087C66.5581 88.646 65.9101 88.25 65.0821 88.25C63.4081 88.25 62.0941 89.546 62.0941 91.706C62.0941 93.875 63.3721 95.117 65.0371 95.117ZM70.1624 95.117C71.3864 95.117 72.4934 94.172 72.4934 92.525C72.4934 90.878 71.3864 89.924 70.1624 89.924C68.9384 89.924 67.8314 90.878 67.8314 92.525C67.8314 94.172 68.9384 95.117 70.1624 95.117ZM70.1624 94.271C69.3884 94.271 68.9024 93.578 68.9024 92.525C68.9024 91.481 69.3884 90.779 70.1624 90.779C70.9454 90.779 71.4314 91.481 71.4314 92.525C71.4314 93.578 70.9454 94.271 70.1624 94.271ZM74.7367 95.117C74.9977 95.117 75.1687 95.081 75.2947 95.036L75.1597 94.253C75.0697 94.271 75.0337 94.271 74.9887 94.271C74.8627 94.271 74.7457 94.172 74.7457 93.893V87.827H73.7107V93.839C73.7107 94.64 73.9897 95.117 74.7367 95.117ZM77.5614 95.117C78.1554 95.117 78.6864 94.82 79.1364 94.433H79.1724L79.2534 95H80.0994V92.021C80.0994 90.707 79.5324 89.924 78.2994 89.924C77.5074 89.924 76.8144 90.248 76.3014 90.572L76.6884 91.274C77.1114 91.004 77.5974 90.77 78.1194 90.77C78.8484 90.77 79.0554 91.274 79.0644 91.85C77.0034 92.075 76.1034 92.624 76.1034 93.686C76.1034 94.559 76.7064 95.117 77.5614 95.117ZM77.8764 94.298C77.4354 94.298 77.1024 94.1 77.1024 93.614C77.1024 93.056 77.5974 92.678 79.0644 92.507V93.722C78.6594 94.091 78.3084 94.298 77.8764 94.298Z" fill="#333333"/>
<path d="M68.9305 22.6282V72.3718C68.9305 72.5721 68.8494 72.7638 68.7041 72.8983C68.4664 73.1243 68.2428 73.4047 68.0415 73.7338C67.4292 74.7552 67.2475 75.9026 67.2196 76.1029C67.0742 79.1216 56.979 79.9285 50.999 79.9285C45.0135 79.9285 34.8987 79.1187 34.7785 76.0972C34.7561 75.9169 34.58 74.7638 33.9565 73.7309C33.7608 73.4047 33.54 73.1243 33.2996 72.9011C33.1542 72.7638 33.0703 72.5721 33.0703 72.3718V22.6311C33.0703 22.5281 33.0927 22.4336 33.129 22.3449C33.1318 22.3364 33.1374 22.3306 33.1402 22.3249C33.157 22.2877 33.1765 22.2534 33.1989 22.2219C33.2073 22.2076 33.2157 22.199 33.2241 22.1876C33.2436 22.1618 33.266 22.1361 33.2912 22.1132C33.294 22.1103 33.2968 22.1046 33.2996 22.1017C33.5428 21.8757 33.7636 21.5981 33.9565 21.2748C34.6331 20.1532 34.7813 18.8885 34.7813 18.8742C34.7841 18.8627 34.7897 18.8484 34.7897 18.837C35.0552 15.8698 45.0554 15.0715 50.999 15.0715C56.9454 15.0715 66.9428 15.8698 67.2084 18.837C67.2112 18.8484 67.2168 18.8599 67.2168 18.8742C67.2196 18.8856 67.3761 20.1618 68.0443 21.272C68.2344 21.5867 68.4497 21.8614 68.6845 22.0846L68.6957 22.096C68.6985 22.0989 68.7013 22.1017 68.7041 22.1046L68.7069 22.1075C68.7376 22.1389 68.7656 22.1704 68.7935 22.2076C68.7991 22.2133 68.8019 22.2219 68.8075 22.2305C68.8271 22.262 68.8467 22.2934 68.8634 22.3278C68.8662 22.3364 68.8718 22.3449 68.8746 22.3564C68.8886 22.3907 68.8998 22.4279 68.9082 22.4651C68.911 22.4737 68.9137 22.4823 68.9165 22.4909C68.9165 22.4966 68.9193 22.5052 68.9221 22.5109C68.9277 22.551 68.9305 22.5882 68.9305 22.6282ZM67.5355 71.9741L67.5327 24.3822C67.5243 24.3879 67.5159 24.3908 67.5075 24.3965C67.3901 24.4566 67.2587 24.5195 67.1217 24.5825C67.0462 24.6168 66.9512 24.6569 66.8477 24.6969C66.7052 24.757 66.5458 24.8142 66.3753 24.8743C66.3669 24.8772 66.3585 24.88 66.3501 24.8829C65.4583 25.2005 64.3959 25.4609 63.2497 25.6726C62.8974 25.7384 62.5368 25.7985 62.1678 25.8557C61.6422 25.9416 61.0886 26.0217 60.4987 26.0932L60.1297 26.1362C59.8893 26.1676 59.6377 26.1962 59.3805 26.222C59.291 26.2306 59.2016 26.242 59.1093 26.2477C59.0059 26.2592 58.9052 26.2706 58.8018 26.2792C58.511 26.3078 58.2091 26.3364 57.9072 26.3593L57.6472 26.3794C57.4291 26.3965 57.2082 26.4137 56.9874 26.4309C56.842 26.4423 56.677 26.4509 56.5121 26.4623C56.3639 26.4709 56.2046 26.4824 56.0396 26.491C55.7265 26.511 55.3994 26.5282 55.0723 26.5425C54.7592 26.5568 54.4461 26.5682 54.1246 26.5797C53.6801 26.5968 53.23 26.6083 52.7743 26.6169C52.5422 26.6226 52.3074 26.6254 52.0698 26.6283H52.0027C51.67 26.6312 51.3345 26.634 50.999 26.634C50.4259 26.634 39.8079 26.6054 35.1894 24.7055C35.1866 24.7055 35.1866 24.7055 35.1866 24.7055C34.9266 24.5996 34.6862 24.488 34.4682 24.3679V72.017C34.4737 72.017 34.8987 72.9097 39.2907 73.7023C42.4638 74.2746 46.621 74.5893 50.999 74.5893C53.7248 74.5893 56.4338 74.4634 58.8465 74.223C58.9052 74.2173 58.9611 74.2116 59.017 74.2059C59.1624 74.1916 59.305 74.1801 59.4448 74.1601C59.4727 74.1601 59.5007 74.1544 59.5286 74.1515C63.5936 73.7052 65.7239 73.0642 66.7387 72.5807C66.7415 72.5778 66.7415 72.5778 66.7443 72.5778C66.789 72.5549 66.8338 72.5349 66.8757 72.512C66.8813 72.5091 66.8869 72.5063 66.8925 72.5034C66.9288 72.4834 66.9652 72.4662 66.9959 72.449C67.0071 72.4433 67.0155 72.4376 67.0239 72.4319C67.0518 72.4176 67.0798 72.4004 67.1049 72.3861C67.1161 72.3775 67.1273 72.3718 67.1357 72.3661C67.1581 72.3518 67.1804 72.3375 67.2 72.326C67.2112 72.3174 67.2224 72.3088 67.2335 72.3003C67.2503 72.2917 67.2671 72.2802 67.2811 72.2688C67.2923 72.2602 67.3034 72.2516 67.3146 72.243C67.3258 72.2344 67.3398 72.223 67.351 72.2144C67.3621 72.2058 67.3705 72.1973 67.3817 72.1887C67.3901 72.1801 67.4013 72.1715 67.4097 72.1658L67.4348 72.14C67.4432 72.1314 67.4488 72.1257 67.4544 72.1171C67.4628 72.1086 67.4712 72.1 67.4768 72.0914C67.4824 72.0857 67.488 72.0799 67.4907 72.0742C67.4963 72.0685 67.5019 72.0599 67.5075 72.0513C67.5103 72.0456 67.5159 72.0399 67.5187 72.037C67.5215 72.0284 67.5243 72.0227 67.5271 72.017C67.5299 72.0113 67.5327 72.0055 67.5327 72.0027C67.5327 71.9941 67.5355 71.9827 67.5355 71.9741ZM67.3929 22.7741C67.2 22.5481 67.0211 22.2963 66.8533 22.0245C66.5486 21.5152 66.3305 20.9858 66.174 20.5166C66.1628 20.5223 66.1488 20.5309 66.1348 20.5395C66.0594 20.5881 65.9783 20.6339 65.8944 20.6825C65.8693 20.6968 65.8441 20.7083 65.8189 20.7226C65.7155 20.7798 65.6093 20.8342 65.4946 20.8857C65.4807 20.8914 65.4639 20.9 65.4499 20.9057C65.3465 20.9515 65.2374 21.0001 65.1256 21.0459C65.0921 21.0574 65.0585 21.0717 65.025 21.086C64.8936 21.1375 64.7622 21.1861 64.6196 21.2348C63.8536 21.5037 62.9338 21.7383 61.891 21.9444C61.2508 22.0731 60.5658 22.1876 59.839 22.2877C59.7942 22.2963 59.7467 22.302 59.6992 22.3077C58.9192 22.4165 58.0917 22.5052 57.2278 22.5824C56.2297 22.6711 55.1842 22.7398 54.1022 22.7827C53.0958 22.8228 52.0586 22.8457 50.999 22.8457C45.3629 22.8457 40.272 22.2448 37.3813 21.2348C37.2387 21.1861 37.1045 21.1375 36.9759 21.086C36.9423 21.0717 36.9088 21.0574 36.8752 21.0459C36.7634 21.0001 36.6544 20.9515 36.5509 20.9057C36.537 20.9 36.5202 20.8914 36.5062 20.8857C36.3916 20.8342 36.2853 20.7798 36.1819 20.7226C36.1567 20.7111 36.1316 20.6968 36.1064 20.6825C36.0226 20.6367 35.9443 20.5881 35.8688 20.5423C35.8548 20.5337 35.838 20.5252 35.8269 20.5166C35.6731 20.9858 35.455 21.5123 35.1475 22.0216C34.9826 22.2963 34.8008 22.551 34.6051 22.7799C34.9294 23.066 35.9862 23.7212 39.2935 24.3164C42.4638 24.8886 46.6238 25.2034 50.999 25.2034C52.0558 25.2034 53.0958 25.1833 54.1134 25.149C54.3427 25.1404 54.5635 25.1318 54.7844 25.1204C54.8962 25.1175 55.008 25.1118 55.1171 25.1061C55.4022 25.0946 55.6846 25.0803 55.9614 25.0603C56.1207 25.0517 56.2745 25.046 56.4254 25.0346C56.4841 25.0317 56.5373 25.026 56.5932 25.0231C56.6631 25.0202 56.733 25.0145 56.8057 25.0088C56.8308 25.0059 56.856 25.0059 56.8811 25.0031C57.1132 24.9888 57.3284 24.9716 57.5409 24.9544L57.7785 24.9344C57.7869 24.9344 57.7981 24.9344 57.8093 24.9315C58.1001 24.9115 58.3908 24.8829 58.6732 24.8543C58.8689 24.8371 59.0534 24.8171 59.2379 24.7971C59.4867 24.7713 59.7271 24.7484 59.9648 24.717L60.3003 24.6769C60.3478 24.6712 60.3953 24.6654 60.4428 24.6597C60.6078 24.6368 60.7699 24.6168 60.9293 24.5968C61.0355 24.5796 61.139 24.5653 61.2424 24.551C61.3402 24.5367 61.4381 24.5224 61.5331 24.5081C61.6729 24.488 61.8099 24.4652 61.9469 24.4451C62.014 24.4337 62.0811 24.4222 62.1454 24.4137C62.246 24.3965 62.3439 24.3793 62.4417 24.3622C62.5592 24.3421 62.6794 24.3192 62.794 24.2992L62.8499 24.2906C62.9785 24.2649 63.1099 24.242 63.2329 24.2162C63.2637 24.2105 63.2972 24.2048 63.328 24.1962C63.3783 24.1876 63.423 24.179 63.4706 24.1676C63.5432 24.1533 63.6159 24.139 63.6886 24.1218C63.7501 24.1104 63.8088 24.0961 63.8675 24.0846C63.9291 24.0703 63.9822 24.0589 64.0381 24.0474C64.0688 24.0388 64.1024 24.0331 64.1331 24.0245C64.1863 24.0131 64.2366 23.9988 64.2869 23.9873C64.5245 23.933 64.7398 23.8786 64.9439 23.8214C65.0417 23.7956 65.1284 23.7699 65.2123 23.7441C65.3241 23.7155 65.4275 23.684 65.5254 23.6526C65.5869 23.6325 65.6456 23.6154 65.7015 23.5953C65.7239 23.5896 65.7462 23.581 65.7658 23.5753C65.8189 23.5581 65.8693 23.541 65.9196 23.5209C65.9867 23.498 66.0482 23.4752 66.1125 23.4523C66.1209 23.4494 66.132 23.4465 66.1404 23.4408C66.1656 23.4322 66.188 23.4236 66.2103 23.4151C66.2746 23.3893 66.3361 23.3664 66.3948 23.3407C66.4116 23.3349 66.4284 23.3264 66.4424 23.3206C66.5095 23.292 66.5738 23.2663 66.6325 23.2377C66.6353 23.2377 66.6353 23.2348 66.6381 23.2348C67.0462 23.046 67.2699 22.8857 67.3929 22.7741ZM66.2355 74.3089C66.2215 74.3146 66.2047 74.3203 66.1908 74.3232C66.0146 74.3833 65.8329 74.4434 65.64 74.5006C65.6288 74.5035 65.6148 74.5063 65.6037 74.5092C65.4052 74.5693 65.1983 74.6265 64.983 74.6809C64.9746 74.6837 64.9662 74.6866 64.9579 74.6894C64.7426 74.7438 64.5189 74.7953 64.2869 74.8468C64.2617 74.8525 64.2366 74.8611 64.2086 74.8668C63.985 74.9155 63.7529 74.9641 63.5125 75.0099C63.4761 75.0185 63.437 75.0242 63.4007 75.0328C63.163 75.0786 62.917 75.1215 62.6654 75.1644C62.6207 75.173 62.5759 75.1787 62.5312 75.1873C62.2768 75.2302 62.0168 75.2703 61.7484 75.3103C61.7009 75.3161 61.6562 75.3218 61.6086 75.3304C61.3347 75.3704 61.0523 75.4076 60.7615 75.4448C60.7224 75.4505 60.6833 75.4563 60.6441 75.4591C60.3534 75.4963 60.057 75.5307 59.7495 75.565C59.7327 75.5679 59.716 75.5707 59.6992 75.5707C59.6908 75.5736 59.6824 75.5736 59.6768 75.5736C59.5091 75.5965 59.3329 75.6136 59.1512 75.6308C56.6547 75.8855 53.8338 76.0199 50.999 76.0199H50.7893C50.7474 76.0199 50.6971 76.0199 50.644 76.0171H50.5853C50.5238 76.0171 50.4622 76.0171 50.3896 76.0142C50.3868 76.0142 50.384 76.0142 50.384 76.0142C50.3141 76.0142 50.2386 76.0142 50.1575 76.0114H50.0764C49.9926 76.0085 49.9087 76.0085 49.8164 76.0056H49.7969C49.7074 76.0056 49.6124 76.0028 49.5173 75.9999C49.4782 75.9999 49.4418 75.9999 49.4027 75.997C49.302 75.9942 49.2014 75.9942 49.0924 75.9913C49.0784 75.9885 49.0644 75.9885 49.0504 75.9885C48.9442 75.9856 48.8324 75.9827 48.7177 75.9799C48.6758 75.977 48.6339 75.977 48.5891 75.9742C48.4829 75.9713 48.3739 75.9684 48.2593 75.9656C48.2229 75.9627 48.1866 75.9627 48.1502 75.9599C48.0356 75.957 47.9182 75.9513 47.8008 75.9484C47.7504 75.9455 47.7029 75.9427 47.6554 75.9427C47.5352 75.937 47.4122 75.9312 47.2892 75.9255C47.2444 75.9255 47.2025 75.9227 47.1578 75.9198C47.0319 75.9141 46.9061 75.9084 46.7775 75.9026L46.6182 75.894C46.4896 75.8883 46.361 75.8797 46.2296 75.874C46.1765 75.8712 46.1234 75.8683 46.0702 75.8654C45.9388 75.8568 45.8074 75.8483 45.6732 75.8397C45.6145 75.8368 45.5558 75.834 45.4971 75.8282C45.3573 75.8196 45.2148 75.8111 45.0722 75.8025C45.0274 75.7996 44.9799 75.7939 44.9352 75.791C44.7926 75.7825 44.65 75.771 44.5047 75.7596C44.4431 75.7567 44.3816 75.751 44.3201 75.7453C44.1748 75.7367 44.0294 75.7224 43.884 75.7109C43.8337 75.7081 43.7834 75.7023 43.733 75.6995C43.5877 75.6852 43.4395 75.6737 43.2913 75.6594C43.2298 75.6537 43.1683 75.648 43.1068 75.6423C42.953 75.6279 42.7993 75.6136 42.6455 75.5965C42.6036 75.5936 42.5617 75.5907 42.5225 75.585C42.366 75.5679 42.2094 75.5536 42.0528 75.5364C41.9941 75.5278 41.9382 75.5221 41.8795 75.5164C41.7229 75.4992 41.5664 75.4792 41.4098 75.462C41.3679 75.4563 41.326 75.4505 41.284 75.4448C41.1303 75.4277 40.9765 75.4076 40.8227 75.3847C40.764 75.379 40.7081 75.3704 40.6494 75.3618C40.4901 75.3418 40.3279 75.3189 40.1685 75.296C40.1378 75.2903 40.107 75.2846 40.0791 75.2817C39.9197 75.2588 39.7632 75.2331 39.6066 75.2073C39.5535 75.1987 39.5004 75.1902 39.4473 75.1816C39.2851 75.1558 39.1258 75.1272 38.9664 75.0986C38.944 75.0957 38.9217 75.0929 38.8993 75.0872C38.7428 75.0585 38.5862 75.0299 38.4324 74.9985C38.3849 74.9899 38.3346 74.9813 38.2871 74.9698C38.1277 74.9384 37.9711 74.9069 37.8174 74.8726C37.8034 74.8697 37.7866 74.8668 37.7699 74.8611C37.6189 74.8296 37.4707 74.7924 37.3225 74.7581C37.2806 74.7467 37.2359 74.7381 37.1939 74.7266C37.0402 74.6894 36.8892 74.6494 36.741 74.6093C36.7355 74.6093 36.7271 74.6065 36.7187 74.6036C36.5761 74.5635 36.4363 74.5235 36.2965 74.4806C36.2602 74.4691 36.221 74.4577 36.1819 74.4462C36.0421 74.4033 35.9023 74.3575 35.7681 74.3117C35.7681 74.3117 35.7681 74.3117 35.7654 74.3117C36.0896 75.2216 36.1707 75.9541 36.1707 75.9656C36.1735 75.9913 36.1763 76.0171 36.1763 76.0428C36.4139 76.8898 41.7146 78.4978 50.999 78.4978C60.2863 78.4978 65.5869 76.8898 65.8273 76.0285C65.8273 75.9999 65.8273 75.9827 65.8301 75.9541C65.8441 75.8454 65.9363 75.1558 66.2355 74.3089ZM65.8189 18.9572C65.8189 18.9572 65.8189 18.9543 65.8189 18.9572C65.5198 18.0873 60.2248 16.5022 50.999 16.5022C41.7509 16.5022 36.4531 18.0959 36.1791 18.96C36.1959 18.9915 36.3245 19.2118 36.9423 19.518C36.9451 19.518 36.9451 19.518 36.9479 19.5208C36.9955 19.5437 37.0458 19.5666 37.0989 19.5895C37.1101 19.5952 37.1185 19.601 37.1296 19.6067C37.1772 19.6267 37.2275 19.6496 37.2778 19.6696C37.2974 19.6782 37.317 19.6868 37.3365 19.6954C37.3896 19.7154 37.4456 19.7383 37.5015 19.7612C37.5266 19.7698 37.5462 19.7784 37.5714 19.7869C37.5965 19.7955 37.6245 19.807 37.6524 19.8156C40.9933 19.0602 45.8382 18.6253 50.999 18.6253C56.1626 18.6253 61.0048 19.0602 64.3484 19.8156C64.3736 19.807 64.3987 19.7984 64.4239 19.7898C64.4518 19.7784 64.477 19.7698 64.5022 19.7583C64.5525 19.7383 64.6028 19.7183 64.6503 19.7011C64.6811 19.6868 64.7062 19.6754 64.7342 19.6639C64.7761 19.6467 64.8153 19.6296 64.8516 19.6124C64.8796 19.601 64.9047 19.5895 64.9299 19.5781C64.9662 19.5609 64.9998 19.5466 65.0305 19.5294C65.0557 19.518 65.0781 19.5065 65.1004 19.4951C65.1312 19.4808 65.1591 19.4636 65.1871 19.4493C65.2067 19.4379 65.2262 19.4264 65.2458 19.4178C65.2738 19.4035 65.2961 19.3892 65.3213 19.3749C65.3381 19.3635 65.3548 19.3549 65.3716 19.3434C65.394 19.3291 65.4164 19.3177 65.4359 19.3034C65.4499 19.2948 65.4639 19.2834 65.4779 19.2748C65.4974 19.2633 65.5142 19.249 65.531 19.2376C65.545 19.229 65.5561 19.2204 65.5673 19.2118C65.5841 19.2004 65.5981 19.1861 65.6148 19.1746C65.6232 19.1689 65.6316 19.1603 65.64 19.1546C65.6596 19.1374 65.6791 19.1203 65.6959 19.1031C65.7015 19.1002 65.7043 19.0974 65.7071 19.0945L65.7574 19.043C65.763 19.0344 65.7686 19.0287 65.7742 19.0201C65.7798 19.0144 65.7826 19.0115 65.7854 19.0058C65.791 19.0001 65.7938 18.9944 65.7994 18.9886C65.8022 18.9858 65.805 18.9801 65.8077 18.9772C65.8105 18.9743 65.8105 18.9686 65.8133 18.9658C65.8161 18.9629 65.8161 18.96 65.8189 18.9572ZM60.3058 20.7712C60.5267 20.7369 60.7392 20.7026 60.9489 20.6654C58.0861 20.2734 54.6278 20.0559 50.999 20.0559C47.373 20.0559 43.9148 20.2734 41.0492 20.6654C41.2589 20.7026 41.4741 20.7369 41.695 20.7712C41.7509 20.7798 41.8096 20.7884 41.8683 20.797C42.0668 20.8285 42.2653 20.8571 42.4694 20.8828C42.5141 20.8885 42.5589 20.8971 42.6064 20.9028C42.8468 20.9343 43.0928 20.9658 43.3416 20.9944C43.4004 21.003 43.4591 21.0087 43.5178 21.0144C43.7302 21.0402 43.9427 21.0631 44.1608 21.0831C44.2167 21.0888 44.2726 21.0946 44.3285 21.1003C44.5885 21.126 44.8541 21.1518 45.1197 21.1747C45.1756 21.1775 45.2315 21.1833 45.2874 21.189C45.5139 21.2061 45.7431 21.2233 45.9724 21.2405C46.0395 21.2433 46.1038 21.2491 46.1681 21.2548C46.4449 21.272 46.7244 21.2891 47.004 21.3063C47.0515 21.3092 47.099 21.3092 47.1466 21.312C47.3898 21.3263 47.6358 21.3378 47.8818 21.3492C47.9545 21.3521 48.03 21.3549 48.1027 21.3578C48.3906 21.3692 48.6814 21.3778 48.9722 21.3864C49.0029 21.3864 49.0337 21.3893 49.0644 21.3893C49.33 21.395 49.5984 21.4007 49.8668 21.4036C49.945 21.4064 50.0233 21.4064 50.1016 21.4093C50.4007 21.4122 50.6999 21.415 50.999 21.415C51.301 21.415 51.6001 21.4122 51.8992 21.4093C51.9775 21.4064 52.0558 21.4064 52.1341 21.4036C52.4025 21.4007 52.6708 21.395 52.9364 21.3893C52.9672 21.3893 52.9979 21.3864 53.0259 21.3864C53.3194 21.3778 53.6102 21.3692 53.8981 21.3578C53.9708 21.3549 54.0435 21.3521 54.119 21.3492C54.365 21.3378 54.6082 21.3263 54.8515 21.312C54.899 21.3092 54.9493 21.3092 54.9968 21.3063C55.2764 21.2891 55.556 21.272 55.83 21.2548C55.8971 21.2491 55.9614 21.2433 56.0285 21.2405C56.2577 21.2233 56.4869 21.2061 56.7106 21.189C56.7665 21.1833 56.8252 21.1775 56.8811 21.1747C57.1467 21.1518 57.4123 21.126 57.6723 21.1003C57.7282 21.0946 57.7841 21.0888 57.8401 21.0831C58.0553 21.0631 58.2706 21.0402 58.4803 21.0144C58.539 21.0087 58.6005 21.003 58.6592 20.9944C58.908 20.9658 59.154 20.9343 59.3945 20.9028C59.442 20.8971 59.4867 20.8885 59.5314 20.8828C59.7355 20.8571 59.934 20.8285 60.1297 20.797C60.1884 20.7884 60.2471 20.7798 60.3058 20.7712Z" fill="#111111"/>
<path d="M66.8527 22.0245C67.0204 22.2963 67.1993 22.5481 67.3923 22.7741C67.2692 22.8857 67.0456 23.046 66.6374 23.2348C66.6346 23.2348 66.6346 23.2377 66.6318 23.2377C66.5731 23.2663 66.5088 23.292 66.4417 23.3206C66.4277 23.3264 66.411 23.3349 66.3942 23.3407C66.3355 23.3664 66.274 23.3893 66.2097 23.4151C66.1873 23.4236 66.1649 23.4322 66.1398 23.4408C66.1314 23.4465 66.1202 23.4494 66.1118 23.4523C66.0475 23.4751 65.986 23.498 65.9189 23.5209C65.8686 23.541 65.8183 23.5581 65.7652 23.5753C65.7456 23.581 65.7232 23.5896 65.7009 23.5953C65.6449 23.6154 65.5862 23.6325 65.5247 23.6525C65.4269 23.684 65.3234 23.7155 65.2116 23.7441C65.1277 23.7699 65.0411 23.7956 64.9432 23.8214C64.7391 23.8786 64.5239 23.933 64.2862 23.9873C64.2359 23.9988 64.1856 24.0131 64.1325 24.0245C64.1017 24.0331 64.0682 24.0388 64.0374 24.0474C63.9815 24.0589 63.9284 24.0703 63.8669 24.0846C63.8082 24.0961 63.7495 24.1104 63.688 24.1218C63.6153 24.139 63.5426 24.1533 63.4699 24.1676C63.4224 24.179 63.3777 24.1876 63.3273 24.1962C63.2966 24.2048 63.263 24.2105 63.2323 24.2162C63.1093 24.242 62.9779 24.2649 62.8493 24.2906L62.7934 24.2992C62.6787 24.3192 62.5585 24.3421 62.4411 24.3622C62.3432 24.3793 62.2454 24.3965 62.1448 24.4137C62.0805 24.4222 62.0134 24.4337 61.9463 24.4451C61.8093 24.4652 61.6723 24.488 61.5325 24.5081C61.4374 24.5224 61.3396 24.5367 61.2417 24.551C61.1383 24.5653 61.0349 24.5796 60.9286 24.5968C60.7693 24.6168 60.6071 24.6368 60.4422 24.6597C60.3947 24.6654 60.3471 24.6712 60.2996 24.6769L59.9641 24.717C59.7265 24.7484 59.4861 24.7713 59.2372 24.7971C59.0527 24.8171 58.8682 24.8371 58.6725 24.8543C58.3902 24.8829 58.0994 24.9115 57.8087 24.9315C57.7975 24.9344 57.7863 24.9344 57.7779 24.9344L57.5403 24.9544C57.3278 24.9716 57.1125 24.9888 56.8805 25.0031C56.8553 25.0059 56.8302 25.0059 56.805 25.0088C56.7323 25.0145 56.6624 25.0202 56.5925 25.0231C56.5366 25.026 56.4835 25.0317 56.4248 25.0346C56.2738 25.046 56.1201 25.0517 55.9607 25.0603C55.6839 25.0803 55.4016 25.0946 55.1164 25.1061C55.0074 25.1118 54.8956 25.1175 54.7837 25.1204C54.5629 25.1318 54.342 25.1404 54.1128 25.149C53.0951 25.1833 52.0551 25.2034 50.9984 25.2034C46.6231 25.2034 42.4632 24.8886 39.2929 24.3164C35.9856 23.7212 34.9288 23.066 34.6045 22.7799C34.8002 22.551 34.9819 22.2963 35.1469 22.0216C35.4544 21.5123 35.6724 20.9858 35.8262 20.5166C35.8374 20.5252 35.8542 20.5337 35.8681 20.5423C35.9436 20.5881 36.0219 20.6367 36.1058 20.6825C36.1309 20.6968 36.1561 20.7111 36.1813 20.7226C36.2847 20.7798 36.3909 20.8342 36.5056 20.8857C36.5195 20.8914 36.5363 20.9 36.5503 20.9057C36.6537 20.9515 36.7628 21.0001 36.8746 21.0459C36.9081 21.0574 36.9417 21.0717 36.9752 21.086C37.1038 21.1375 37.238 21.1861 37.3806 21.2348C40.2713 22.2448 45.3623 22.8457 50.9984 22.8457C52.0579 22.8457 53.0951 22.8228 54.1016 22.7827C55.1835 22.7398 56.2291 22.6711 57.2272 22.5824C58.091 22.5052 58.9185 22.4165 59.6985 22.3077C59.7461 22.302 59.7936 22.2963 59.8383 22.2877C60.5652 22.1876 61.2501 22.0731 61.8903 21.9444C62.9331 21.7383 63.8529 21.5037 64.6189 21.2348C64.7615 21.1861 64.8929 21.1375 65.0243 21.086C65.0579 21.0717 65.0914 21.0574 65.125 21.0459C65.2368 21.0001 65.3458 20.9515 65.4493 20.9057C65.4632 20.9 65.48 20.8914 65.494 20.8857C65.6086 20.8342 65.7148 20.7798 65.8183 20.7226C65.8434 20.7083 65.8686 20.6968 65.8938 20.6825C65.9776 20.6339 66.0587 20.5881 66.1342 20.5395C66.1482 20.5309 66.1622 20.5223 66.1733 20.5166C66.3299 20.9858 66.548 21.5152 66.8527 22.0245Z" fill="#B5B5B6"/>
<path d="M66.191 74.3232C66.205 74.3203 66.2218 74.3146 66.2358 74.3089C65.9366 75.1558 65.8444 75.8454 65.8304 75.9541C65.8276 75.9828 65.8276 75.9999 65.8276 76.0285C65.5872 76.8898 60.2865 78.4978 50.9993 78.4978C41.7148 78.4978 36.4142 76.8898 36.1766 76.0428C36.1766 76.0171 36.1738 75.9913 36.171 75.9656C36.171 75.9541 36.0899 75.2217 35.7656 74.3118C35.7684 74.3118 35.7684 74.3118 35.7684 74.3118C35.9026 74.3575 36.0424 74.4033 36.1822 74.4462C36.2213 74.4577 36.2605 74.4691 36.2968 74.4806C36.4366 74.5235 36.5764 74.5636 36.719 74.6036C36.7273 74.6065 36.7357 74.6093 36.7413 74.6093C36.8895 74.6494 37.0405 74.6895 37.1942 74.7267C37.2362 74.7381 37.2809 74.7467 37.3228 74.7581C37.471 74.7925 37.6192 74.8297 37.7701 74.8611C37.7869 74.8669 37.8037 74.8697 37.8177 74.8726C37.9714 74.9069 38.128 74.9384 38.2873 74.9699C38.3349 74.9813 38.3852 74.9899 38.4327 74.9985C38.5865 75.0299 38.743 75.0586 38.8996 75.0872C38.9219 75.0929 38.9443 75.0958 38.9667 75.0986C39.126 75.1272 39.2854 75.1558 39.4475 75.1816C39.5007 75.1902 39.5538 75.1988 39.6069 75.2073C39.7634 75.2331 39.92 75.2588 40.0794 75.2817C40.1073 75.2846 40.1381 75.2903 40.1688 75.296C40.3282 75.3189 40.4903 75.3418 40.6497 75.3619C40.7084 75.3704 40.7643 75.379 40.823 75.3847C40.9768 75.4076 41.1305 75.4277 41.2843 75.4448C41.3262 75.4506 41.3682 75.4563 41.4101 75.462C41.5667 75.4792 41.7232 75.4992 41.8798 75.5164C41.9385 75.5221 41.9944 75.5278 42.0531 75.5364C42.2097 75.5536 42.3662 75.5679 42.5228 75.585C42.5619 75.5908 42.6039 75.5936 42.6458 75.5965C42.7996 75.6137 42.9533 75.628 43.1071 75.6423C43.1686 75.648 43.2301 75.6537 43.2916 75.6594C43.4398 75.6737 43.5879 75.6852 43.7333 75.6995C43.7836 75.7024 43.834 75.7081 43.8843 75.7109C44.0297 75.7224 44.175 75.7367 44.3204 75.7453C44.3819 75.751 44.4434 75.7567 44.5049 75.7596C44.6503 75.771 44.7929 75.7825 44.9355 75.7911C44.9802 75.7939 45.0277 75.7996 45.0724 75.8025C45.215 75.8111 45.3576 75.8197 45.4974 75.8282C45.5561 75.834 45.6148 75.8368 45.6735 75.8397C45.8077 75.8483 45.9391 75.8569 46.0705 75.8654C46.1236 75.8683 46.1767 75.8712 46.2299 75.874C46.3613 75.8798 46.4899 75.8883 46.6185 75.8941L46.7778 75.9026C46.9064 75.9084 47.0322 75.9141 47.158 75.9198C47.2028 75.9227 47.2447 75.9255 47.2894 75.9255C47.4124 75.9313 47.5354 75.937 47.6557 75.9427C47.7032 75.9427 47.7507 75.9456 47.801 75.9484C47.9185 75.9513 48.0359 75.957 48.1505 75.9599C48.1868 75.9627 48.2232 75.9627 48.2595 75.9656C48.3742 75.9685 48.4832 75.9713 48.5894 75.9742C48.6341 75.977 48.6761 75.977 48.718 75.9799C48.8326 75.9828 48.9445 75.9856 49.0507 75.9885C49.0647 75.9885 49.0787 75.9885 49.0926 75.9913C49.2017 75.9942 49.3023 75.9942 49.403 75.9971C49.4421 75.9999 49.4784 75.9999 49.5176 75.9999C49.6126 76.0028 49.7077 76.0057 49.7972 76.0057H49.8167C49.909 76.0085 49.9928 76.0085 50.0767 76.0114H50.1578C50.2389 76.0142 50.3144 76.0142 50.3842 76.0142C50.3842 76.0142 50.387 76.0142 50.3898 76.0142C50.4625 76.0171 50.524 76.0171 50.5855 76.0171H50.6442C50.6974 76.02 50.7477 76.02 50.7896 76.02H50.9993C53.8341 76.02 56.655 75.8855 59.1515 75.6308C59.3332 75.6136 59.5093 75.5965 59.6771 75.5736C59.6827 75.5736 59.6911 75.5736 59.6995 75.5707C59.7162 75.5707 59.733 75.5679 59.7498 75.565C60.0573 75.5307 60.3536 75.4963 60.6444 75.4591C60.6835 75.4563 60.7227 75.4506 60.7618 75.4448C61.0526 75.4076 61.3349 75.3704 61.6089 75.3304C61.6564 75.3218 61.7012 75.3161 61.7487 75.3104C62.0171 75.2703 62.2771 75.2302 62.5315 75.1873C62.5762 75.1787 62.6209 75.173 62.6657 75.1644C62.9173 75.1215 63.1633 75.0786 63.4009 75.0328C63.4373 75.0242 63.4764 75.0185 63.5128 75.0099C63.7532 74.9641 63.9852 74.9155 64.2089 74.8669C64.2368 74.8611 64.262 74.8525 64.2872 74.8468C64.5192 74.7953 64.7429 74.7438 64.9581 74.6895C64.9665 74.6866 64.9749 74.6837 64.9833 74.6809C65.1986 74.6265 65.4054 74.5693 65.6039 74.5092C65.6151 74.5063 65.6291 74.5035 65.6403 74.5006C65.8332 74.4434 66.0149 74.3833 66.191 74.3232Z" fill="#B5B5B6"/>
<path d="M65.8213 18.9543C65.8185 18.9543 65.8185 18.9572 65.8213 18.9543C65.8157 18.96 65.8157 18.9629 65.8129 18.9657C65.8101 18.9686 65.8101 18.9743 65.8073 18.9772C65.8046 18.98 65.8018 18.9858 65.799 18.9886C65.7934 18.9944 65.7906 19.0001 65.785 19.0058C65.7822 19.0115 65.7794 19.0144 65.7738 19.0201C65.7682 19.0287 65.7626 19.0344 65.757 19.043L65.7067 19.0945C65.7039 19.0974 65.7011 19.1002 65.6955 19.1031C65.6787 19.1203 65.6592 19.1374 65.6396 19.1546C65.6312 19.1603 65.6228 19.1689 65.6144 19.1746C65.5977 19.1861 65.5837 19.2004 65.5669 19.2118C65.5557 19.2204 65.5446 19.229 65.5306 19.2376C65.5138 19.249 65.497 19.2633 65.4775 19.2748C65.4635 19.2833 65.4495 19.2948 65.4355 19.3034C65.416 19.3177 65.3936 19.3291 65.3712 19.3434C65.3544 19.3549 65.3377 19.3635 65.3209 19.3749C65.2957 19.3892 65.2734 19.4035 65.2454 19.4178C65.2258 19.4264 65.2063 19.4379 65.1867 19.4493C65.1587 19.4636 65.1308 19.4808 65.1 19.4951C65.0777 19.5065 65.0553 19.518 65.0301 19.5294C64.9994 19.5466 64.9658 19.5609 64.9295 19.5781C64.9043 19.5895 64.8792 19.6009 64.8512 19.6124C64.8149 19.6296 64.7757 19.6467 64.7338 19.6639C64.7058 19.6753 64.6807 19.6868 64.6499 19.7011C64.6024 19.7183 64.5521 19.7383 64.5018 19.7583C64.4766 19.7698 64.4514 19.7783 64.4235 19.7898C64.3983 19.7984 64.3732 19.807 64.348 19.8155C61.0044 19.0602 56.1622 18.6252 50.9986 18.6252C45.8378 18.6252 40.9929 19.0602 37.652 19.8155C37.6241 19.807 37.5961 19.7955 37.571 19.7869C37.5458 19.7783 37.5262 19.7698 37.5011 19.7612C37.4452 19.7383 37.3892 19.7154 37.3361 19.6954C37.3166 19.6868 37.297 19.6782 37.2774 19.6696C37.2271 19.6496 37.1768 19.6267 37.1292 19.6067C37.1181 19.6009 37.1097 19.5952 37.0985 19.5895C37.0454 19.5666 36.9951 19.5437 36.9475 19.5208C36.9447 19.518 36.9447 19.518 36.9419 19.518C36.3241 19.2118 36.1955 18.9915 36.1787 18.96C36.4527 18.0959 41.7505 16.5022 50.9986 16.5022C60.2244 16.5022 65.5194 18.0873 65.8213 18.9543Z" fill="#595757"/>
<path d="M60.9485 20.6654C60.7388 20.7026 60.5263 20.7369 60.3055 20.7712C60.2468 20.7798 60.1881 20.7884 60.1294 20.797C59.9337 20.8285 59.7352 20.8571 59.5311 20.8828C59.4864 20.8885 59.4416 20.8971 59.3941 20.9029C59.1537 20.9343 58.9076 20.9658 58.6588 20.9944C58.6001 21.003 58.5386 21.0087 58.4799 21.0144C58.2702 21.0402 58.055 21.0631 57.8397 21.0831C57.7838 21.0888 57.7279 21.0946 57.672 21.1003C57.412 21.126 57.1464 21.1518 56.8808 21.1747C56.8249 21.1775 56.7662 21.1833 56.7102 21.189C56.4866 21.2061 56.2573 21.2233 56.0281 21.2405C55.961 21.2433 55.8967 21.2491 55.8296 21.2548C55.5556 21.272 55.2761 21.2891 54.9965 21.3063C54.949 21.3092 54.8986 21.3092 54.8511 21.312C54.6079 21.3263 54.3647 21.3378 54.1186 21.3492C54.0432 21.3521 53.9705 21.3549 53.8978 21.3578C53.6098 21.3692 53.3191 21.3778 53.0255 21.3864C52.9976 21.3864 52.9668 21.3893 52.9361 21.3893C52.6705 21.395 52.4021 21.4007 52.1337 21.4036C52.0554 21.4064 51.9771 21.4064 51.8989 21.4093C51.5997 21.4122 51.3006 21.415 50.9987 21.415C50.6995 21.415 50.4004 21.4122 50.1012 21.4093C50.023 21.4064 49.9447 21.4064 49.8664 21.4036C49.598 21.4007 49.3296 21.395 49.064 21.3893C49.0333 21.3893 49.0025 21.3864 48.9718 21.3864C48.681 21.3778 48.3903 21.3692 48.1023 21.3578C48.0296 21.3549 47.9542 21.3521 47.8815 21.3492C47.6355 21.3378 47.3894 21.3263 47.1462 21.312C47.0987 21.3092 47.0512 21.3092 47.0036 21.3063C46.7241 21.2891 46.4445 21.272 46.1677 21.2548C46.1034 21.2491 46.0391 21.2433 45.972 21.2405C45.7428 21.2233 45.5135 21.2061 45.2871 21.189C45.2312 21.1833 45.1753 21.1775 45.1193 21.1747C44.8538 21.1518 44.5882 21.126 44.3282 21.1003C44.2722 21.0946 44.2163 21.0888 44.1604 21.0831C43.9424 21.0631 43.7299 21.0402 43.5174 21.0144C43.4587 21.0087 43.4 21.003 43.3413 20.9944C43.0925 20.9658 42.8465 20.9343 42.606 20.9029C42.5585 20.8971 42.5138 20.8885 42.469 20.8828C42.2649 20.8571 42.0665 20.8285 41.868 20.797C41.8093 20.7884 41.7505 20.7798 41.6946 20.7712C41.4738 20.7369 41.2585 20.7026 41.0488 20.6654C43.9144 20.2734 47.3727 20.0559 50.9987 20.0559C54.6275 20.0559 58.0857 20.2734 60.9485 20.6654Z" fill="#898989"/>
<path d="M67.5351 71.9741C67.5351 71.9826 67.5323 71.9941 67.5323 72.0027C67.5323 72.0055 67.5295 72.0113 67.5267 72.017C67.5239 72.0227 67.5211 72.0284 67.5183 72.037C67.5155 72.0399 67.5099 72.0456 67.5071 72.0513C67.5016 72.0599 67.496 72.0685 67.4904 72.0742C67.4876 72.0799 67.482 72.0856 67.4764 72.0914C67.4708 72.1 67.4624 72.1085 67.454 72.1171C67.4484 72.1257 67.4428 72.1314 67.4345 72.14L67.4093 72.1658C67.4009 72.1715 67.3897 72.1801 67.3813 72.1887C67.3702 72.1972 67.3618 72.2058 67.3506 72.2144C67.3394 72.223 67.3254 72.2344 67.3142 72.243C67.3031 72.2516 67.2919 72.2602 67.2807 72.2688C67.2667 72.2802 67.2499 72.2917 67.2332 72.3002C67.222 72.3088 67.2108 72.3174 67.1996 72.326C67.1801 72.3374 67.1577 72.3518 67.1353 72.3661C67.1269 72.3718 67.1158 72.3775 67.1046 72.3861C67.0794 72.4004 67.0515 72.4176 67.0235 72.4319C67.0151 72.4376 67.0067 72.4433 66.9955 72.449C66.9648 72.4662 66.9284 72.4834 66.8921 72.5034C66.8865 72.5063 66.8809 72.5091 66.8753 72.512C66.8334 72.5349 66.7887 72.5549 66.7439 72.5778C66.7411 72.5778 66.7411 72.5778 66.7383 72.5807C65.7235 73.0642 63.5932 73.7051 59.5283 74.1515C59.5003 74.1544 59.4724 74.1601 59.4444 74.1601C58.4715 70.0169 57.4231 62.1713 60.9457 55.0323C66.3274 44.1251 67.468 34.5941 63.2493 25.6726C64.3956 25.4609 65.4579 25.2005 66.3497 24.8829C66.3581 24.88 66.3665 24.8772 66.3749 24.8743C66.5454 24.8142 66.7048 24.757 66.8474 24.6969C66.9508 24.6569 67.0459 24.6168 67.1213 24.5825C67.2583 24.5195 67.3897 24.4566 67.5071 24.3965C67.5155 24.3908 67.5239 24.3879 67.5323 24.3822L67.5351 71.9741Z" fill="#BA1414"/>
<path d="M60.9457 55.0323C57.4231 62.1713 58.4715 70.0169 59.4444 74.1601C59.3046 74.1801 59.162 74.1916 59.0167 74.2059C58.9608 74.2116 58.9048 74.2173 58.8461 74.223C57.5266 70.263 55.6842 62.3372 58.6812 54.7433C62.9893 43.839 63.4814 34.5369 59.1089 26.2477C59.2012 26.242 59.2907 26.2306 59.3801 26.222C59.6373 26.1962 59.8889 26.1676 60.1294 26.1361L60.4984 26.0932C61.0883 26.0217 61.6418 25.9416 62.1674 25.8557C62.5364 25.7985 62.8971 25.7384 63.2493 25.6726C67.468 34.5941 66.3274 44.1251 60.9457 55.0323Z" fill="white"/>
<path d="M58.8461 74.223C56.4334 74.4634 53.7244 74.5893 50.9986 74.5893C46.6206 74.5893 42.4634 74.2745 39.2903 73.7023C34.8983 72.9097 34.4734 72.017 34.4678 72.017V24.3679C34.6858 24.488 34.9263 24.5996 35.1863 24.7055C35.1863 24.7055 35.1863 24.7055 35.1891 24.7055C39.8075 26.6054 50.4255 26.634 50.9986 26.634C51.3341 26.634 51.6696 26.6311 52.0023 26.6283H52.0694C52.307 26.6254 52.5419 26.6226 52.7739 26.6168C53.2296 26.6083 53.6797 26.5968 54.1242 26.5796C54.4457 26.5682 54.7588 26.5567 55.0719 26.5424C55.399 26.5281 55.7261 26.511 56.0393 26.4909C56.2042 26.4824 56.3636 26.4709 56.5117 26.4623C56.6767 26.4509 56.8416 26.4423 56.987 26.4309C57.2079 26.4137 57.4287 26.3965 57.6468 26.3793L57.9068 26.3593C58.2087 26.3364 58.5106 26.3078 58.8014 26.2792C58.9048 26.2706 59.0055 26.2592 59.1089 26.2477C63.4814 34.5369 62.9893 43.839 58.6812 54.7433C55.6842 62.3372 57.5266 70.263 58.8461 74.223Z" fill="#BA1414"/>
<path d="M42.1338 61.5704C42.1338 61.1813 42.2708 60.8837 42.542 60.6748C42.7572 60.506 43.0172 60.423 43.3247 60.423C43.8755 60.423 44.5017 60.6119 45.2062 60.9896C45.8129 61.3215 46.3581 61.7335 46.8389 62.2257C47.152 62.5518 47.3058 62.8065 47.3058 62.9925C47.3058 63.1155 47.2471 63.2271 47.1269 63.333C47.043 63.4074 46.9452 63.4474 46.8389 63.4474C46.6404 63.4474 46.414 63.27 46.1596 62.9152C45.7961 62.4145 45.3991 62.0196 44.9686 61.7221C44.3452 61.2871 43.8168 61.0697 43.3863 61.0697C43.2101 61.0697 43.0787 61.1097 42.9949 61.187C42.911 61.2643 42.8663 61.3816 42.8663 61.5389C42.8663 61.8594 43.0927 62.3115 43.5456 62.8981C44.0572 63.5647 44.7505 64.2715 45.6312 65.0125C46.7495 65.9596 47.8482 66.6778 48.9329 67.1728C50.054 67.6793 51.0129 67.9339 51.8068 67.9339C52.1871 67.9339 52.5114 67.8223 52.7769 67.5934C53.0789 67.3445 53.2271 67.0383 53.2271 66.6778C53.2271 66.0512 52.7518 65.2615 51.7985 64.3087C51.5105 64.0254 51.0884 63.6792 50.5404 63.2729C50.1881 63.0068 49.9393 62.8351 49.7912 62.7579C49.6262 62.672 49.5451 62.569 49.5451 62.4517C49.5451 62.3229 49.6038 62.26 49.7241 62.26C49.9785 62.26 50.5516 62.5862 51.4434 63.2357C52.1871 63.7765 52.7937 64.3716 53.2634 65.0211C53.7918 65.7536 54.0546 66.4432 54.0546 67.0927C54.0546 67.7708 53.7582 68.2973 53.16 68.6693C52.7797 68.9068 52.3464 69.027 51.8572 69.027C50.6327 69.027 49.0866 68.4347 47.2191 67.2501C45.6312 66.24 44.3508 65.1756 43.3807 64.054C42.5503 63.0898 42.1338 62.26 42.1338 61.5704Z" fill="white"/>
<path d="M47.5879 58.6004C47.5879 58.1254 47.8703 57.8851 48.4378 57.8851C49.1926 57.8851 50.1487 58.2427 51.3062 58.9552C52.5586 59.7335 53.1876 60.486 53.1876 61.2099C53.1876 61.5475 53.0339 61.7936 52.7292 61.951C52.5754 62.0311 52.3909 62.074 52.1756 62.074C51.4487 62.074 50.6603 61.8193 49.8105 61.3072C49.0221 60.8322 48.4098 60.2714 47.9737 59.6276C47.7137 59.2499 47.5879 58.9066 47.5879 58.6004ZM50.8029 59.5046C50.6883 59.6505 50.6016 59.722 50.5401 59.722C50.4954 59.722 50.3696 59.6305 50.1655 59.4445C49.5924 58.9209 49.1311 58.6605 48.7789 58.6605C48.7341 58.6605 48.6894 58.6748 48.6419 58.7034C48.558 58.7492 48.5133 58.8236 48.5133 58.9209C48.5133 59.1068 48.6894 59.3787 49.0416 59.7392C49.4945 60.2027 49.9642 60.5575 50.4451 60.8007C50.9958 61.084 51.4515 61.2271 51.815 61.2271C51.91 61.2271 51.9967 61.2013 52.0694 61.1498C52.1728 61.0754 52.2231 60.9781 52.2231 60.8637C52.2231 60.5861 52.019 60.2857 51.6109 59.9681C51.4403 59.8279 51.2642 59.7163 51.0825 59.6276C50.9036 59.5418 50.8085 59.4988 50.8029 59.5046Z" fill="white"/>
<path d="M50.2501 56.3972C50.6919 56.5717 51.0497 56.7034 51.3209 56.7892C51.5921 56.875 51.7822 56.9208 51.8912 56.9208C52.0338 56.9208 52.1037 56.8521 52.1037 56.7119C52.1037 56.5031 51.9108 56.2341 51.525 55.9022C51.3377 55.7448 50.9994 55.5131 50.5129 55.2069C50.32 55.0839 50.225 54.958 50.225 54.8235C50.225 54.6718 50.2949 54.5974 50.4375 54.5974C50.6807 54.5974 51.1755 54.8836 51.9192 55.4587C52.6964 56.0567 53.085 56.6118 53.085 57.1211C53.085 57.3414 52.9955 57.5217 52.8138 57.6619C52.6824 57.7592 52.5258 57.8107 52.3385 57.8107C52.0198 57.8107 51.5809 57.7105 51.019 57.516C50.457 57.3185 49.7749 57.0267 48.9697 56.6375C46.9233 55.639 45.2347 54.6203 43.9067 53.5817C42.8416 52.7519 42.3076 52.0623 42.3076 51.5187C42.3076 51.3441 42.3719 51.2011 42.5033 51.0924C42.6347 50.975 42.7829 50.9178 42.9534 50.9178C43.7474 50.9178 45.0698 51.6446 46.9177 53.0953C47.7396 53.7448 48.5616 54.523 49.3863 55.4301C49.5988 55.659 49.8867 55.9852 50.2501 56.3972ZM48.897 55.7792C47.8878 54.5717 46.6102 53.493 45.0698 52.5402C44.2702 52.048 43.739 51.7991 43.479 51.7991C43.3532 51.7991 43.2917 51.8535 43.2917 51.9651C43.2917 52.2855 43.9123 52.8664 45.1536 53.7076C46.174 54.4029 47.4237 55.0953 48.897 55.7792Z" fill="white"/>
<path d="M51.6699 51.4329C51.9997 51.6246 52.2765 51.8134 52.503 51.9994C52.9447 52.3656 53.1655 52.729 53.1655 53.0867C53.1655 53.4014 53.0202 53.6446 52.7322 53.8192C52.5449 53.9308 52.324 53.9851 52.0696 53.9851C51.4406 53.9851 50.7445 53.782 49.9841 53.3757C49.1398 52.9236 48.4884 52.3771 48.0355 51.739C47.7419 51.3213 47.5938 50.9178 47.5938 50.5287C47.5938 50.2855 47.6664 50.0823 47.8146 49.9192C47.946 49.779 48.0914 49.7104 48.2563 49.7104C48.3821 49.7104 48.5555 49.759 48.7763 49.8591C48.8965 49.7704 49 49.7275 49.0922 49.7275C49.2125 49.7275 49.4081 49.8076 49.6793 49.9707C49.9561 50.1396 50.3251 50.3084 50.7864 50.4772C51.2757 50.6574 51.6671 50.7461 51.9606 50.7461C52.1982 50.7461 52.3939 50.6746 52.5477 50.5287C52.5868 50.4886 52.6539 50.3685 52.7434 50.171C52.8105 50.0251 52.9307 49.9536 53.1012 49.9536C53.2103 49.9536 53.2969 49.9936 53.364 50.0766C53.4367 50.1624 53.4759 50.2654 53.4759 50.3828C53.4759 50.6975 53.3389 50.9665 53.0677 51.1925C52.8468 51.3785 52.5673 51.4701 52.2346 51.4701C52.12 51.4701 51.9327 51.4586 51.6699 51.4329ZM48.8714 50.3456C48.7456 50.4142 48.6533 50.4915 48.5946 50.5716C48.5359 50.6517 48.5051 50.7404 48.5051 50.832C48.5051 51.2726 48.8826 51.7533 49.6374 52.2683C50.4705 52.8377 51.1778 53.121 51.7565 53.121C51.8991 53.121 52.0053 53.0924 52.0808 53.038C52.1535 52.9837 52.1927 52.9007 52.1927 52.7891C52.1927 52.5116 51.9047 52.1854 51.326 51.8134C51.0073 51.6045 50.5404 51.347 49.9226 51.038C49.52 50.8348 49.2544 50.6861 49.123 50.5945C49.0503 50.5516 48.9692 50.4686 48.8714 50.3456Z" fill="white"/>
<path d="M45.3184 43.9048C45.3184 43.5156 45.4553 43.2181 45.7265 43.0092C45.9418 42.8404 46.2018 42.7574 46.5093 42.7574C47.0601 42.7574 47.6863 42.9462 48.3908 43.3239C48.9975 43.6558 49.5426 44.0679 50.0235 44.56C50.3366 44.8862 50.4904 45.1408 50.4904 45.3268C50.4904 45.4499 50.4317 45.5615 50.3114 45.6673C50.2276 45.7417 50.1297 45.7818 50.0235 45.7818C49.825 45.7818 49.5985 45.6044 49.3441 45.2496C48.9807 44.7488 48.5837 44.354 48.1532 44.0564C47.5297 43.6215 47.0014 43.404 46.5708 43.404C46.3947 43.404 46.2633 43.4441 46.1794 43.5213C46.0956 43.5986 46.0508 43.7159 46.0508 43.8733C46.0508 44.1938 46.2773 44.6458 46.7302 45.2324C47.2418 45.8991 47.9351 46.6058 48.8158 47.3469C49.934 48.294 51.0327 49.0122 52.1175 49.5072C53.2413 50.0193 54.2002 50.274 54.9942 50.274C55.3744 50.274 55.6987 50.1595 55.9643 49.9335C56.2663 49.6846 56.4144 49.3784 56.4144 49.0179C56.4144 48.3913 55.9392 47.6016 54.9858 46.6487C54.6979 46.3655 54.2757 46.0193 53.7278 45.613C53.3755 45.3469 53.1267 45.1752 52.9785 45.0979C52.8136 45.0121 52.7325 44.9091 52.7325 44.7918C52.7325 44.663 52.7912 44.6001 52.9114 44.6001C53.1658 44.6001 53.739 44.9262 54.6308 45.5758C55.3744 46.1165 55.9811 46.7117 56.4508 47.3612C56.9792 48.0937 57.2419 48.7833 57.2419 49.4328C57.2419 50.1109 56.9456 50.6374 56.3473 51.0094C55.9671 51.2468 55.5338 51.367 55.0445 51.367C53.82 51.367 52.274 50.7747 50.4065 49.5902C48.8186 48.5801 47.5381 47.5157 46.568 46.3941C45.7349 45.427 45.3184 44.5972 45.3184 43.9048Z" fill="white"/>
<path d="M50.7725 40.9376C50.7725 40.4626 51.0548 40.2223 51.6223 40.2223C52.3772 40.2223 53.3333 40.58 54.4907 41.2924C55.7432 42.0707 56.3722 42.8232 56.3722 43.5471C56.3722 43.8847 56.2184 44.1308 55.9137 44.2882C55.76 44.3683 55.5754 44.4112 55.3602 44.4112C54.6333 44.4112 53.8449 44.1566 52.995 43.6444C52.2066 43.1694 51.5944 42.6086 51.1583 41.9648C50.8983 41.5871 50.7725 41.2438 50.7725 40.9376ZM53.9875 41.8418C53.8729 41.9877 53.7862 42.0592 53.7247 42.0592C53.68 42.0592 53.5542 41.9677 53.3501 41.7817C52.777 41.2581 52.3157 40.9977 51.9634 40.9977C51.9187 40.9977 51.874 41.012 51.8264 41.0406C51.7426 41.0864 51.6978 41.1608 51.6978 41.2581C51.6978 41.4441 51.874 41.7159 52.2262 42.0764C52.6791 42.5399 53.1488 42.8947 53.6296 43.1379C54.1804 43.4212 54.6361 43.5643 54.9995 43.5643C55.0946 43.5643 55.1813 43.5385 55.2539 43.487C55.3574 43.4126 55.4077 43.3153 55.4077 43.2009C55.4077 42.9233 55.2036 42.6229 54.7954 42.3053C54.6249 42.1651 54.4488 42.0535 54.2671 41.9648C54.0881 41.8761 53.9931 41.8361 53.9875 41.8418Z" fill="white"/>
<path d="M53.4337 38.7344C53.8755 38.9089 54.2333 39.0406 54.5045 39.1264C54.7757 39.2122 54.9658 39.258 55.0748 39.258C55.2174 39.258 55.2873 39.1894 55.2873 39.0491C55.2873 38.8403 55.0944 38.5713 54.7086 38.2394C54.5213 38.082 54.183 37.8503 53.6965 37.5441C53.5064 37.4182 53.4086 37.2923 53.4086 37.1578C53.4086 37.0062 53.4785 36.9318 53.6211 36.9318C53.8643 36.9318 54.3591 37.2179 55.1028 37.793C55.88 38.3911 56.2686 38.9461 56.2686 39.4555C56.2686 39.6758 56.1791 39.856 55.9974 39.9962C55.866 40.0935 55.7094 40.145 55.5221 40.145C55.2034 40.145 54.7645 40.0449 54.2026 39.8503C53.6406 39.6529 52.9585 39.361 52.1533 38.9719C50.1069 37.9733 48.4183 36.9547 47.0903 35.916C46.0252 35.0863 45.4912 34.3967 45.4912 33.853C45.4912 33.6785 45.5555 33.5354 45.6869 33.4267C45.8183 33.3094 45.9665 33.2522 46.137 33.2522C46.931 33.2522 48.2533 33.9789 50.1013 35.4296C50.9232 36.0791 51.7452 36.8574 52.5699 37.7644C52.7824 37.9962 53.0731 38.3224 53.4337 38.7344ZM52.0806 38.1135C51.0714 36.906 49.7938 35.8273 48.2533 34.8745C47.4538 34.3824 46.9226 34.1334 46.6626 34.1334C46.5368 34.1334 46.4753 34.1878 46.4753 34.2994C46.4753 34.6199 47.0959 35.2007 48.3372 36.0419C49.3604 36.7401 50.6073 37.4297 52.0806 38.1135Z" fill="white"/>
<path d="M54.8574 33.7701C55.1872 33.9618 55.464 34.1506 55.6905 34.3366C56.1322 34.7029 56.353 35.0662 56.353 35.4239C56.353 35.7386 56.2077 35.9819 55.9197 36.1564C55.7324 36.268 55.5115 36.3224 55.2571 36.3224C54.6281 36.3224 53.932 36.1192 53.1716 35.7129C52.3273 35.2608 51.6759 34.7143 51.223 34.0762C50.9294 33.6585 50.7812 33.255 50.7812 32.8659C50.7812 32.6227 50.8539 32.4195 51.0021 32.2565C51.1335 32.1162 51.2789 32.0476 51.4438 32.0476C51.5696 32.0476 51.743 32.0962 51.9638 32.1964C52.084 32.1077 52.1875 32.0647 52.2797 32.0647C52.3999 32.0647 52.5956 32.1449 52.8668 32.308C53.1436 32.4768 53.5126 32.6456 53.9739 32.8144C54.4632 32.9947 54.8546 33.0834 55.1481 33.0834C55.3857 33.0834 55.5814 33.0118 55.7352 32.8659C55.7743 32.8258 55.8414 32.7057 55.9309 32.5082C55.998 32.3623 56.1182 32.2908 56.2887 32.2908C56.3978 32.2908 56.4844 32.3308 56.5515 32.4138C56.6242 32.4997 56.6634 32.6027 56.6634 32.72C56.6634 33.0347 56.5264 33.3037 56.2552 33.5297C56.0343 33.7157 55.7548 33.8073 55.4221 33.8073C55.3047 33.8044 55.1174 33.793 54.8574 33.7701ZM52.0561 32.6828C51.9303 32.7515 51.838 32.8287 51.7793 32.9088C51.7206 32.9889 51.6898 33.0776 51.6898 33.1692C51.6898 33.6098 52.0673 34.0905 52.8221 34.6056C53.6552 35.175 54.3625 35.4582 54.9412 35.4582C55.0838 35.4582 55.19 35.4296 55.2655 35.3753C55.3382 35.3209 55.3774 35.2379 55.3774 35.1263C55.3774 34.8488 55.0894 34.5226 54.5107 34.1506C54.192 33.9418 53.7251 33.6842 53.1073 33.3752C52.7047 33.1721 52.4391 33.0233 52.3077 32.9317C52.235 32.8888 52.1539 32.803 52.0561 32.6828Z" fill="white"/>
<path d="M33.325 119H38.365V117.86H36.637V110.156H35.593C35.089 110.48 34.501 110.684 33.673 110.84V111.716H35.257V117.86H33.325V119ZM42.5567 119.156C44.2847 119.156 45.4127 117.62 45.4127 114.548C45.4127 111.5 44.2847 110 42.5567 110C40.8287 110 39.7007 111.488 39.7007 114.548C39.7007 117.62 40.8287 119.156 42.5567 119.156ZM42.5567 118.064C41.6567 118.064 41.0207 117.104 41.0207 114.548C41.0207 112.016 41.6567 111.092 42.5567 111.092C43.4567 111.092 44.0927 112.016 44.0927 114.548C44.0927 117.104 43.4567 118.064 42.5567 118.064ZM49.4005 119.156C51.1285 119.156 52.2565 117.62 52.2565 114.548C52.2565 111.5 51.1285 110 49.4005 110C47.6725 110 46.5445 111.488 46.5445 114.548C46.5445 117.62 47.6725 119.156 49.4005 119.156ZM49.4005 118.064C48.5005 118.064 47.8645 117.104 47.8645 114.548C47.8645 112.016 48.5005 111.092 49.4005 111.092C50.3005 111.092 50.9365 112.016 50.9365 114.548C50.9365 117.104 50.3005 118.064 49.4005 118.064ZM56.2442 119.156C57.9722 119.156 59.1002 117.62 59.1002 114.548C59.1002 111.5 57.9722 110 56.2442 110C54.5162 110 53.3882 111.488 53.3882 114.548C53.3882 117.62 54.5162 119.156 56.2442 119.156ZM56.2442 118.064C55.3442 118.064 54.7082 117.104 54.7082 114.548C54.7082 112.016 55.3442 111.092 56.2442 111.092C57.1442 111.092 57.7802 112.016 57.7802 114.548C57.7802 117.104 57.1442 118.064 56.2442 118.064ZM65.896 115.448V116.312H68.02V117.32H69.256V109.076H68.02V115.448H65.896ZM63.736 110.408C64.624 110.408 65.236 110.792 65.236 111.404C65.236 112.016 64.624 112.4 63.736 112.4C62.836 112.4 62.224 112.016 62.224 111.404C62.224 110.792 62.836 110.408 63.736 110.408ZM63.736 113.312C65.32 113.312 66.412 112.556 66.412 111.404C66.412 110.252 65.32 109.496 63.736 109.496C62.14 109.496 61.048 110.252 61.048 111.404C61.048 112.556 62.14 113.312 63.736 113.312ZM63.244 116.972H64.48V114.884C65.404 114.824 66.352 114.728 67.264 114.572L67.168 113.684C64.876 113.972 62.212 113.996 60.22 114.008L60.376 115.016C61.24 115.016 62.212 115.004 63.244 114.956V116.972ZM62.92 118.712V116.516H61.684V119.72H69.508V118.712H62.92Z" fill="white"/>
</g>
<defs>
<filter id="filter0_d_31_1250" x="0" y="0" width="102" height="138" filterUnits="userSpaceOnUse" color-interpolation-filters="sRGB">
<feFlood flood-opacity="0" result="BackgroundImageFix"/>
<feColorMatrix in="SourceAlpha" type="matrix" values="0 0 0 0 0 0 0 0 0 0 0 0 0 0 0 0 0 0 127 0" result="hardAlpha"/>
<feOffset/>
<feGaussianBlur stdDeviation="2"/>
<feColorMatrix type="matrix" values="0 0 0 0 0 0 0 0 0 0 0 0 0 0 0 0 0 0 0.5 0"/>
<feBlend mode="normal" in2="BackgroundImageFix" result="effect1_dropShadow_31_1250"/>
<feBlend mode="normal" in="SourceGraphic" in2="effect1_dropShadow_31_1250" result="shape"/>
</filter>
</defs>
</svg>
